<svg width="46" height="46" viewBox="0 0 46 46" fill="none" xmlns="http://www.w3.org/2000/svg">
<path d="M23 14.1111C19.3178 14.1111 16.3333 16.1 16.3333 18.5556C16.3333 21.0111 19.3178 23 23 23C26.6822 23 29.6667 24.9889 29.6667 27.4444C29.6667 29.9 26.6822 31.8889 23 31.8889V14.1111ZM23 14.1111C25.4667 14.1111 27.6222 15.0044 28.7756 16.3333L23 14.1111ZM23 14.1111V11.8889V14.1111ZM23 14.1111V31.8889V14.1111ZM23 31.8889V34.1111V31.8889ZM23 31.8889C20.5333 31.8889 18.3778 30.9956 17.2244 29.6667L23 31.8889ZM43 23C43 25.6264 42.4827 28.2272 41.4776 30.6537C40.4725 33.0802 38.9993 35.285 37.1421 37.1421C35.285 38.9993 33.0802 40.4725 30.6537 41.4776C28.2272 42.4827 25.6264 43 23 43C20.3736 43 17.7728 42.4827 15.3463 41.4776C12.9198 40.4725 10.715 38.9993 8.85786 37.1421C7.00069 35.285 5.5275 33.0802 4.52241 30.6537C3.51732 28.2272 3 25.6264 3 23C3 17.6957 5.10714 12.6086 8.85786 8.85786C12.6086 5.10714 17.6957 3 23 3C28.3043 3 33.3914 5.10714 37.1421 8.85786C40.8929 12.6086 43 17.6957 43 23Z" stroke="#F8F8F8" stroke-width="4.16667" stroke-linecap="round" stroke-linejoin="round"/>
</svg>
