<svg width="30" height="30" viewBox="0 0 30 30" fill="none" xmlns="http://www.w3.org/2000/svg">
<path d="M9.60938 15.9375H14.0625V20.3906C14.0625 20.5195 14.168 20.625 14.2969 20.625H15.7031C15.832 20.625 15.9375 20.5195 15.9375 20.3906V15.9375H20.3906C20.5195 15.9375 20.625 15.832 20.625 15.7031V14.2969C20.625 14.168 20.5195 14.0625 20.3906 14.0625H15.9375V9.60938C15.9375 9.48047 15.832 9.375 15.7031 9.375H14.2969C14.168 9.375 14.0625 9.48047 14.0625 9.60938V14.0625H9.60938C9.48047 14.0625 9.375 14.168 9.375 14.2969V15.7031C9.375 15.832 9.48047 15.9375 9.60938 15.9375Z" fill="#F8F8F8"/>
<path d="M25.7812 3.28125H4.21875C3.7002 3.28125 3.28125 3.7002 3.28125 4.21875V25.7812C3.28125 26.2998 3.7002 26.7188 4.21875 26.7188H25.7812C26.2998 26.7188 26.7188 26.2998 26.7188 25.7812V4.21875C26.7188 3.7002 26.2998 3.28125 25.7812 3.28125ZM24.6094 24.6094H5.39062V5.39062H24.6094V24.6094Z" fill="#F8F8F8"/>
</svg>
