<svg width="40" height="40" viewBox="0 0 40 40" fill="none" xmlns="http://www.w3.org/2000/svg">
<path d="M37.9688 0.46875C37.7832 0.46875 37.5928 0.50293 37.4023 0.581055L9.25781 11.8896H1.25C0.820312 11.8896 0.46875 12.251 0.46875 12.7002V27.2998C0.46875 27.749 0.820312 28.1103 1.25 28.1103H6.21094C6.03027 28.6768 5.9375 29.2773 5.9375 29.8877C5.9375 33.1055 8.56445 35.7227 11.7969 35.7227C14.502 35.7227 16.7822 33.8867 17.4561 31.4062L37.4072 39.4238C37.5977 39.4971 37.7881 39.5361 37.9736 39.5361C38.7988 39.5361 39.5361 38.8428 39.5361 37.915V2.08984C39.5312 1.16211 38.7988 0.46875 37.9688 0.46875ZM11.7969 32.2217C10.5029 32.2217 9.45312 31.1768 9.45312 29.8877C9.45312 29.3408 9.64355 28.8184 9.99023 28.4033L14.1357 30.0684C14.0381 31.2695 13.0273 32.2217 11.7969 32.2217Z" fill="#F8F8F8"/>
</svg>
