<svg width="34" height="42" viewBox="0 0 34 42" fill="none" xmlns="http://www.w3.org/2000/svg">
<path d="M16.6667 41.6667C15.5613 41.6612 14.5025 41.2212 13.719 40.4415C12.9354 39.6619 12.4901 38.6053 12.4792 37.5H20.8125C20.8169 38.057 20.7107 38.6094 20.5 39.125C20.2306 39.7432 19.8181 40.2885 19.2965 40.7159C18.7749 41.1434 18.1591 41.4407 17.5 41.5833H17.4021C17.16 41.6338 16.9139 41.6617 16.6667 41.6667ZM33.3333 35.4167H0V31.25L4.16667 29.1667V17.7083C4.05691 14.769 4.7207 11.8523 6.09167 9.25C6.76633 8.05681 7.68631 7.02023 8.79094 6.20864C9.89556 5.39705 11.1597 4.8289 12.5 4.54167V0H20.8333V4.54167C26.2062 5.82083 29.1667 10.4958 29.1667 17.7083V29.1667L33.3333 31.25V35.4167Z" fill="#F8F8F8"/>
</svg>
