<svg width="51" height="54" viewBox="0 0 51 54" fill="none" xmlns="http://www.w3.org/2000/svg">
<path d="M49.9977 24.6144C49.4923 22.0135 47.4673 19.3805 44.5762 19.3805C44.1191 19.3805 43.6575 19.4501 43.2039 19.5876C41.6673 20.0537 40.2342 20.8716 38.8494 21.6635C38.2931 21.9805 37.7476 22.2903 37.203 22.576L37.2003 22.5501C37.3923 22.0785 37.4926 21.5745 37.4958 21.0653C37.4958 20.8385 37.4628 20.6198 37.4262 20.4028C37.658 19.7599 38.0318 19.1776 38.5199 18.6992C45.8459 11.3706 44.8869 8.3822 37.3047 8.3822C28.0931 8.38309 18.568 0 10.6983 0C8.5117 0 6.45008 0.648218 4.56167 2.30537C-2.25177 8.2822 9.05902 15.0251 5.37239 16.4215C1.00183 18.0769 -0.93033 20.8671 0.697359 25.4189C3.77684 34.0368 5.38489 30.0957 6.17864 40.3556C6.97151 50.628 8.33848 53.5718 11.8198 53.5718C14.1528 53.5718 17.4368 52.2503 22.1368 50.9227C24.3368 50.3021 26.6448 49.9968 28.8234 49.7994C29.402 50.0741 30.0248 50.2437 30.6627 50.3003C35.1226 50.745 38.9681 53.5718 38.9681 53.5718C38.4797 51.6869 37.9146 50.1209 37.303 48.8235C38.9458 48.2771 39.5789 47.2816 38.5199 45.2432C35.4994 39.427 35.8967 36.8011 38.5199 34.6842C39.9083 33.5627 40.6021 32.5859 40.8708 31.7074C43.4128 31.4895 45.6843 31.0698 47.1244 30.5118C49.3968 29.6323 50.5227 27.3171 49.9977 24.6144ZM32.9601 23.876C32.9145 23.876 32.869 23.8698 32.8252 23.8689C31.6663 23.7385 30.7172 22.985 30.3538 21.9653C30.451 21.8997 30.5393 21.8216 30.6163 21.7332C30.8699 22.2019 31.3743 22.5269 31.9627 22.5269C32.8047 22.5269 33.4869 21.8716 33.4869 21.0653C33.4869 20.4144 33.0413 19.8707 32.4279 19.6805C32.9521 19.1892 33.5302 18.7588 34.1511 18.3974C35.3145 18.7849 36.1565 19.8278 36.1565 21.0644C36.1565 22.343 35.2565 23.4135 34.0315 23.7662C33.6785 23.8354 33.3198 23.8722 32.9601 23.876ZM35.7101 17.701C35.9128 17.6332 36.1101 17.5555 36.3208 17.501C36.4244 17.4742 36.5315 17.4528 36.6378 17.4296C36.4613 17.6256 36.2958 17.8312 36.1422 18.0457C36.006 17.9213 35.8616 17.8062 35.7101 17.701ZM37.0708 32.9618C35.8485 33.9484 35.069 35.0145 34.6163 36.1333C32.7422 34.7806 29.5377 34.2583 26.3725 33.9592C25.7486 33.9006 25.1224 33.8708 24.4957 33.8699C20.4377 33.8699 16.8519 35.1127 14.6564 37.2788C13.2457 38.6726 12.5064 40.3681 12.5198 42.1815C12.5439 45.8682 14.3001 46.6441 15.7671 46.6441H15.7689C17.2251 46.6441 18.868 45.8226 20.7689 44.8744C22.4636 44.0289 24.3841 43.0699 26.0475 42.8324C27.6377 42.6074 28.9949 42.4699 30.1931 42.3476C31.9511 42.1699 33.4654 42.0163 34.544 41.5905C34.9726 43.1324 35.6833 44.7021 36.4904 46.2557C36.5833 46.4333 36.644 46.5762 36.6842 46.6842C36.5245 46.742 36.3614 46.7897 36.1958 46.8271C33.7011 43.0146 30.7967 42.7012 29.1904 43.2431C27.4118 43.8449 26.4672 45.9744 27.0074 47.745C25.2029 47.9548 23.3234 48.2637 21.5055 48.7762C20.2076 49.147 18.9146 49.5348 17.6269 49.9396C15.1037 50.7209 13.1099 51.3378 11.8198 51.3378C10.8206 51.3378 9.3117 51.3378 8.45098 40.186C7.95544 33.794 7.10276 32.3047 5.63668 30.2216C4.86792 29.1288 3.9956 27.8904 2.84827 24.6796C1.92237 22.0841 2.13487 20.0403 6.1965 18.5019C7.56526 17.984 8.06973 17.0206 8.24741 16.493C8.82777 14.7796 7.78491 13.1554 6.68311 11.4358C4.45096 7.95809 3.66434 6.08843 6.08311 3.96699C7.43312 2.78305 8.90098 2.23126 10.6992 2.23126C13.9653 2.23126 17.8626 4.04199 21.9904 5.95986C26.9136 8.24827 32.0056 10.6144 37.3047 10.6144C40.1423 10.6144 41.0423 11.0742 41.2548 11.2179C41.2396 11.476 41.0414 12.442 39.2065 14.6358C39.1333 14.5822 39.061 14.5251 38.986 14.4876L38.8922 14.4474L38.6851 14.3617C38.2688 14.2075 37.8381 14.0956 37.3994 14.0278C36.8308 13.9427 36.2543 13.9244 35.6815 13.9733C34.5398 14.0804 33.434 14.4295 32.4377 14.9974C31.4285 15.5764 30.5388 16.3425 29.8163 17.2546C29.4499 17.7175 29.1276 18.2137 28.8538 18.7367C28.636 19.1528 28.4529 19.5861 28.3065 20.0323L28.1806 20.4716C28.1583 20.5608 28.1538 20.6501 28.1502 20.7394C27.8798 20.2987 27.6191 19.8522 27.3681 19.4001C26.6529 18.1269 26.2207 17.359 25.2288 17.359C25.1029 17.359 24.8698 17.3778 24.6225 17.4867C24.6136 17.4099 24.6127 17.3323 24.5904 17.2564L24.3797 16.6519C24.1595 16.1156 23.894 15.5992 23.5859 15.1081C23.1749 14.458 22.6999 13.8505 22.168 13.2947C21.0859 12.1723 19.8082 11.2568 18.3975 10.5929C16.9657 9.91807 15.4223 9.51164 13.8439 9.39381C13.0509 9.33562 12.2542 9.35625 11.4653 9.45542C10.8576 9.53438 10.2578 9.66522 9.67242 9.84649L9.09027 10.0608C8.84583 10.1612 8.63656 10.3317 8.4888 10.5508C8.34104 10.7699 8.2614 11.0278 8.25991 11.292V11.4349C8.25991 12.167 8.8617 12.7644 9.60813 12.7742C10.2269 12.7831 10.834 12.8197 11.4233 12.8849C12.0358 12.9492 12.6305 13.0447 13.2001 13.1671C13.2644 13.1813 13.3242 13.2037 13.3885 13.2188C11.3251 14.2563 9.91081 16.334 9.91081 18.7278C9.91081 22.1528 12.8028 24.9394 16.3582 24.9394C17.1385 24.9394 17.8832 24.7993 18.5752 24.5528C17.7734 26.1734 18.1251 27.3368 18.5635 28.0279C19.1287 28.9145 20.1261 29.4511 21.1653 29.7422C19.0442 29.4771 16.9669 28.935 14.9867 28.1296C13.395 27.4843 11.8729 26.679 10.4439 25.7261C9.71495 25.2427 9.00799 24.727 8.32509 24.1805C7.63853 23.6361 6.97571 23.0623 6.33847 22.4609C6.08015 22.2202 5.73986 22.0868 5.38678 22.088C5.03369 22.0891 4.69429 22.2247 4.43756 22.4671L4.31345 22.5894C4.10973 22.7819 3.97257 23.0342 3.92184 23.3098C3.87112 23.5855 3.90946 23.8701 4.03131 24.1225L4.42863 24.8627C4.56435 25.0912 4.70631 25.3171 4.85453 25.5323C5.12685 25.9377 5.43668 26.3502 5.80632 26.8029C6.45811 27.585 7.2099 28.3421 8.04562 29.0538C9.67199 30.4292 11.5061 31.5382 13.4796 32.3395C15.4207 33.1252 17.4957 33.5913 19.4859 33.6886C19.735 33.6993 19.985 33.7056 20.2305 33.7056C20.9912 33.7056 21.7341 33.6511 22.4448 33.5431C22.9228 33.4698 23.3963 33.3691 23.8627 33.2413C24.1038 33.177 24.3404 33.1011 24.6198 33.002L25.2931 32.7243C25.86 32.4636 26.1716 31.86 26.0538 31.2573L26.0172 31.0681C25.9534 30.7611 25.7857 30.4855 25.5424 30.2879C25.299 30.0903 24.9949 29.9826 24.6814 29.9832C24.4109 29.9823 24.143 29.9698 23.8752 29.9618C24.5761 29.8359 25.0216 29.5082 25.1913 28.9761C25.9082 29.6475 26.8538 30.1636 27.9145 30.5645C27.7251 30.7918 27.6087 31.0709 27.5806 31.3654C27.5386 31.8824 27.8752 32.4172 28.3324 32.6761C28.3583 32.6904 28.4565 32.7386 28.4841 32.7511L28.66 32.8368C28.7797 32.8921 28.9012 32.9433 29.0243 32.9904C29.2699 33.085 29.5163 33.1636 29.769 33.2324C30.4652 33.4194 31.1829 33.514 31.9038 33.5136C32.7127 33.5136 33.5083 33.3984 34.2619 33.1734C35.1811 32.9024 36.0408 32.4601 36.7958 31.8699L37.0681 31.8725C37.4681 31.8725 37.8672 31.8627 38.2646 31.8529C37.9949 32.169 37.6146 32.5225 37.0708 32.9618ZM34.4029 37.7654C34.4342 37.8056 34.4735 37.8458 34.502 37.886C34.5681 37.9797 34.619 38.0788 34.6681 38.177C34.6869 38.2136 34.7128 38.2502 34.7288 38.2878C34.8467 38.5645 34.9011 38.8538 34.9038 39.1565C34.9056 39.6583 34.6833 39.994 34.2404 40.2378L34.2431 40.2512C33.7842 40.5038 33.0895 40.6565 32.1511 40.7833L31.469 36.1672C32.9904 36.602 33.9011 37.1422 34.4029 37.7654ZM16.7859 37.2824C17.5948 36.736 18.5493 36.2833 19.6055 35.9422L20.7091 43.4012C19.7064 43.8985 18.7528 44.3896 17.8894 44.7512L16.7859 37.2824ZM17.2323 45.0039C15.2564 45.6914 13.9099 45.3789 13.8876 42.1717C13.8733 40.4404 14.7251 38.9217 16.16 37.7494L17.2323 45.0039ZM20.2707 35.7449C21.235 35.4894 22.2212 35.3256 23.2163 35.2556L24.1984 41.9012C23.2466 42.2083 22.285 42.6351 21.3573 43.0833L20.2707 35.7449ZM23.9047 35.2208C24.6843 35.1956 25.4647 35.2194 26.2413 35.2922C26.4823 35.3145 26.7154 35.3395 26.944 35.3636L27.8145 41.2565C27.1993 41.3279 26.5484 41.4083 25.8529 41.5074C25.527 41.5547 25.1975 41.6226 24.8645 41.7083L23.9047 35.2208ZM27.6502 35.4458C28.8591 35.5949 29.8842 35.7717 30.7476 35.9779L31.4699 40.8681C30.6342 40.9619 29.644 41.0529 28.4984 41.1788L27.6502 35.4458ZM16.5609 14.2983C17.6254 14.7981 18.629 15.4185 19.5519 16.1474C19.9948 16.493 20.443 16.8831 20.8912 17.3144C21.052 17.4662 21.21 17.6287 21.3689 17.7903C21.4314 18.0948 21.4662 18.409 21.4662 18.7314C21.4662 21.418 19.1752 23.6037 16.3582 23.6037C13.5412 23.6037 11.2501 21.418 11.2501 18.7314C11.2501 16.2867 13.1474 14.2626 15.61 13.9153C15.9296 14.0403 16.2555 14.1537 16.5609 14.2983ZM22.7913 19.0108C22.9127 19.0448 23.0359 19.0671 23.1618 19.0671C23.352 19.0671 23.5377 19.0135 23.7163 18.9349C23.7073 19.0108 23.6904 19.0724 23.685 19.1555C23.6136 20.3707 23.1234 20.8609 22.1448 21.4528C22.5317 20.6941 22.7521 19.8616 22.7913 19.0108ZM46.6218 29.2654C44.6914 30.0136 40.9173 30.5341 37.0655 30.5341C32.1949 30.5341 27.1949 29.7011 25.6395 27.4413C24.9859 26.493 24.1797 26.1421 23.5136 26.1421C22.1671 26.1421 21.4073 27.5814 23.7038 28.4064C24.1261 28.5582 23.793 28.6841 23.1636 28.6841C21.6448 28.6841 18.3957 27.9573 19.8153 25.1189C21.1368 22.4734 24.8288 23.0269 25.0484 19.2314C25.0707 18.8599 25.1306 18.7001 25.2279 18.7001C25.7636 18.6992 27.4145 23.4555 29.9833 24.5716C30.8848 24.9728 31.8574 25.1896 32.844 25.2091C32.9547 25.218 33.0601 25.2412 33.1726 25.2412C33.5346 25.2368 33.8948 25.188 34.2449 25.0957C37.6056 24.5073 40.4744 21.818 43.6075 20.8671C43.9211 20.7706 44.2472 20.721 44.5753 20.7198C48.3959 20.7198 50.6629 27.7002 46.6218 29.2654Z" fill="#F8F8F8"/>
</svg>
